<svg width="87" height="80" viewBox="0 0 87 80" fill="none" xmlns="http://www.w3.org/2000/svg">
<g clip-path="url(#clip0_379_3998)">
<path d="M34.1779 27.3125L43.6256 36.0312C44.1514 36.5156 44.1514 37.3125 43.6256 37.7969L41.7089 39.5625C41.1831 40.0469 40.318 40.0469 39.7922 39.5625L30.3446 30.8437L22.6609 37.9219L32.1255 46.6406C32.6513 47.125 32.6513 47.9219 32.1255 48.4062L30.2089 50.1719C29.683 50.6562 28.818 50.6562 28.2922 50.1719L18.8276 41.4375L14.3497 45.5625C11.4153 48.2656 10.0075 51.9844 10.4485 55.7812L11.6528 65.7187L0.390209 76.0937C-0.135604 76.5781 -0.135604 77.375 0.390209 77.8594L2.30688 79.625C2.83269 80.1094 3.69774 80.1094 4.22355 79.625L15.4692 69.2656L26.2568 70.375C30.3106 70.7812 34.3814 69.5312 37.3497 66.7812L68.203 38.3594L45.186 17.1562L34.1779 27.3125ZM86.4538 12.7344L73.0202 0.359375C72.4944 -0.125 71.6293 -0.125 71.1035 0.359375L69.1868 2.125C68.661 2.60937 68.661 3.40625 69.1868 3.89062L73.987 8.3125L66.3033 15.3906L56.703 6.54687L53.8195 3.89062C53.2937 3.40625 52.4287 3.40625 51.9029 3.89062L46.1529 9.1875C45.627 9.67187 45.627 10.4687 46.1529 10.9531L49.0363 13.6094L72.0534 34.8437L74.9368 37.5C75.4626 37.9844 76.3277 37.9844 76.8535 37.5L82.6035 32.1875C83.1293 31.7031 83.1293 30.9062 82.6035 30.4219L70.1367 18.9375L77.8203 11.8594L82.6205 16.2812C83.1463 16.7656 84.0113 16.7656 84.5372 16.2812L86.4538 14.5156C86.9796 14.0156 86.9796 13.2344 86.4538 12.7344Z" fill="#DD7878"/>
</g>
<defs>
<clipPath id="clip0_379_3998">
<rect width="86.8438" height="80" fill="white"/>
</clipPath>
</defs>
</svg>
