<svg width="101" height="101" viewBox="0 0 101 101" fill="none" xmlns="http://www.w3.org/2000/svg">
<circle cx="50.5" cy="50.5875" r="50" fill="#18395C"/>
<path opacity="0.4" d="M21.9189 45.024C21.9189 44.819 21.887 44.6367 21.8232 44.4772C21.764 44.3177 21.6569 44.1718 21.502 44.0397C21.347 43.9075 21.1283 43.7799 20.8457 43.6569C20.5677 43.5293 20.2122 43.3994 19.7793 43.2672C19.3053 43.1214 18.8678 42.9596 18.4668 42.7819C18.0703 42.5996 17.724 42.3899 17.4277 42.153C17.1315 41.9114 16.9014 41.6357 16.7373 41.3258C16.5732 41.0114 16.4912 40.649 16.4912 40.2389C16.4912 39.8333 16.5755 39.4642 16.7441 39.1315C16.9173 38.7988 17.1611 38.5117 17.4756 38.2701C17.7946 38.024 18.1706 37.8349 18.6035 37.7028C19.0365 37.566 19.515 37.4977 20.0391 37.4977C20.7773 37.4977 21.4131 37.6344 21.9463 37.9078C22.484 38.1813 22.8965 38.5481 23.1836 39.0084C23.4753 39.4687 23.6211 39.9768 23.6211 40.5328H21.9189C21.9189 40.2047 21.8483 39.9153 21.707 39.6647C21.5703 39.4095 21.3607 39.2089 21.0781 39.0631C20.8001 38.9173 20.4469 38.8444 20.0186 38.8444C19.613 38.8444 19.2757 38.9059 19.0068 39.0289C18.738 39.152 18.5374 39.3183 18.4053 39.528C18.2731 39.7376 18.207 39.9746 18.207 40.2389C18.207 40.4257 18.2503 40.5966 18.3369 40.7516C18.4235 40.902 18.5557 41.0433 18.7334 41.1754C18.9111 41.303 19.1344 41.4238 19.4033 41.5377C19.6722 41.6517 19.9889 41.761 20.3535 41.8658C20.9049 42.0299 21.3857 42.2122 21.7959 42.4127C22.2061 42.6087 22.5479 42.832 22.8213 43.0826C23.0947 43.3333 23.2998 43.6181 23.4365 43.9371C23.5732 44.2516 23.6416 44.6093 23.6416 45.0104C23.6416 45.4296 23.5573 45.8079 23.3887 46.1451C23.2201 46.4778 22.9785 46.7627 22.6641 46.9996C22.3542 47.2321 21.9805 47.4121 21.543 47.5397C21.11 47.6627 20.627 47.7242 20.0938 47.7242C19.6152 47.7242 19.1436 47.6604 18.6787 47.5328C18.2184 47.4052 17.7992 47.2115 17.4209 46.9518C17.0426 46.6875 16.7419 46.3593 16.5186 45.9674C16.2952 45.5709 16.1836 45.1084 16.1836 44.5797H17.8994C17.8994 44.9033 17.9541 45.179 18.0635 45.4069C18.1774 45.6347 18.3346 45.8216 18.5352 45.9674C18.7357 46.1087 18.9681 46.2135 19.2324 46.2819C19.5013 46.3502 19.7884 46.3844 20.0938 46.3844C20.4948 46.3844 20.8298 46.3274 21.0986 46.2135C21.3721 46.0996 21.5771 45.9401 21.7139 45.735C21.8506 45.5299 21.9189 45.2929 21.9189 45.024ZM28.2559 47.7242C27.709 47.7242 27.2145 47.6354 26.7725 47.4576C26.335 47.2753 25.9613 47.0224 25.6514 46.6989C25.346 46.3753 25.1113 45.9948 24.9473 45.5573C24.7832 45.1198 24.7012 44.6481 24.7012 44.1422V43.8688C24.7012 43.29 24.7855 42.7659 24.9541 42.2965C25.1227 41.8271 25.3574 41.4261 25.6582 41.0934C25.959 40.7561 26.3145 40.4987 26.7246 40.3209C27.1348 40.1432 27.5791 40.0543 28.0576 40.0543C28.5863 40.0543 29.0488 40.1432 29.4453 40.3209C29.8418 40.4987 30.1699 40.7493 30.4297 41.0729C30.694 41.3919 30.89 41.7724 31.0176 42.2145C31.1497 42.6565 31.2158 43.1442 31.2158 43.6774V44.3815H25.501V43.1989H29.5889V43.069C29.5798 42.7727 29.5205 42.4948 29.4111 42.235C29.3063 41.9752 29.1445 41.7656 28.9258 41.6061C28.707 41.4466 28.4154 41.3668 28.0508 41.3668C27.7773 41.3668 27.5335 41.4261 27.3193 41.5446C27.1097 41.6585 26.9342 41.8248 26.793 42.0436C26.6517 42.2623 26.5423 42.5267 26.4648 42.8365C26.3919 43.1419 26.3555 43.486 26.3555 43.8688V44.1422C26.3555 44.4658 26.3988 44.7666 26.4854 45.0446C26.5765 45.318 26.7087 45.5573 26.8818 45.7623C27.055 45.9674 27.2646 46.1292 27.5107 46.2477C27.7568 46.3616 28.0371 46.4186 28.3516 46.4186C28.748 46.4186 29.1012 46.3388 29.4111 46.1793C29.721 46.0198 29.9899 45.7942 30.2178 45.5026L31.0859 46.3434C30.9264 46.5758 30.7191 46.7991 30.4639 47.0133C30.2087 47.2229 29.8965 47.3938 29.5273 47.526C29.1628 47.6582 28.7389 47.7242 28.2559 47.7242ZM34.2646 37.0875V47.5875H32.6104V37.0875H34.2646ZM39.3301 47.7242C38.7832 47.7242 38.2887 47.6354 37.8467 47.4576C37.4092 47.2753 37.0355 47.0224 36.7256 46.6989C36.4202 46.3753 36.1855 45.9948 36.0215 45.5573C35.8574 45.1198 35.7754 44.6481 35.7754 44.1422V43.8688C35.7754 43.29 35.8597 42.7659 36.0283 42.2965C36.1969 41.8271 36.4316 41.4261 36.7324 41.0934C37.0332 40.7561 37.3887 40.4987 37.7988 40.3209C38.209 40.1432 38.6533 40.0543 39.1318 40.0543C39.6605 40.0543 40.123 40.1432 40.5195 40.3209C40.916 40.4987 41.2441 40.7493 41.5039 41.0729C41.7682 41.3919 41.9642 41.7724 42.0918 42.2145C42.224 42.6565 42.29 43.1442 42.29 43.6774V44.3815H36.5752V43.1989H40.6631V43.069C40.654 42.7727 40.5947 42.4948 40.4854 42.235C40.3805 41.9752 40.2188 41.7656 40 41.6061C39.7812 41.4466 39.4896 41.3668 39.125 41.3668C38.8516 41.3668 38.6077 41.4261 38.3936 41.5446C38.1839 41.6585 38.0085 41.8248 37.8672 42.0436C37.7259 42.2623 37.6165 42.5267 37.5391 42.8365C37.4661 43.1419 37.4297 43.486 37.4297 43.8688V44.1422C37.4297 44.4658 37.473 44.7666 37.5596 45.0446C37.6507 45.318 37.7829 45.5573 37.9561 45.7623C38.1292 45.9674 38.3389 46.1292 38.585 46.2477C38.8311 46.3616 39.1113 46.4186 39.4258 46.4186C39.8223 46.4186 40.1755 46.3388 40.4854 46.1793C40.7952 46.0198 41.0641 45.7942 41.292 45.5026L42.1602 46.3434C42.0007 46.5758 41.7933 46.7991 41.5381 47.0133C41.2829 47.2229 40.9707 47.3938 40.6016 47.526C40.237 47.6582 39.8132 47.7242 39.3301 47.7242ZM46.5967 46.4117C46.8656 46.4117 47.1071 46.3593 47.3213 46.2545C47.54 46.1451 47.7155 45.9948 47.8477 45.8033C47.9844 45.6119 48.0596 45.3909 48.0732 45.1403H49.625C49.6159 45.6188 49.4746 46.054 49.2012 46.4459C48.9277 46.8378 48.5654 47.15 48.1143 47.3824C47.6631 47.6103 47.1641 47.7242 46.6172 47.7242C46.0521 47.7242 45.5599 47.6285 45.1406 47.4371C44.7214 47.2412 44.3727 46.9723 44.0947 46.6305C43.8167 46.2887 43.6071 45.8945 43.4658 45.4479C43.3291 45.0013 43.2607 44.5227 43.2607 44.0123V43.7731C43.2607 43.2627 43.3291 42.7841 43.4658 42.3375C43.6071 41.8864 43.8167 41.4899 44.0947 41.1481C44.3727 40.8063 44.7214 40.5397 45.1406 40.3483C45.5599 40.1523 46.0498 40.0543 46.6104 40.0543C47.2028 40.0543 47.7223 40.1728 48.1689 40.4098C48.6156 40.6422 48.9665 40.9681 49.2217 41.3873C49.4814 41.802 49.6159 42.2851 49.625 42.8365H48.0732C48.0596 42.5631 47.9912 42.317 47.8682 42.0983C47.7497 41.875 47.5811 41.6972 47.3623 41.5651C47.1481 41.4329 46.8906 41.3668 46.5898 41.3668C46.2572 41.3668 45.9814 41.4352 45.7627 41.5719C45.5439 41.7041 45.373 41.8864 45.25 42.1188C45.127 42.3466 45.0381 42.6041 44.9834 42.8912C44.9333 43.1738 44.9082 43.4677 44.9082 43.7731V44.0123C44.9082 44.3177 44.9333 44.6139 44.9834 44.901C45.0335 45.1881 45.1201 45.4456 45.2432 45.6735C45.3708 45.8968 45.5439 46.0768 45.7627 46.2135C45.9814 46.3457 46.2594 46.4117 46.5967 46.4117ZM52.6533 40.191V47.5875H50.999V40.191H52.6533ZM50.8896 38.2496C50.8896 37.999 50.9717 37.7916 51.1357 37.6276C51.3044 37.4589 51.5368 37.3746 51.833 37.3746C52.1247 37.3746 52.3548 37.4589 52.5234 37.6276C52.6921 37.7916 52.7764 37.999 52.7764 38.2496C52.7764 38.4957 52.6921 38.7008 52.5234 38.8649C52.3548 39.0289 52.1247 39.111 51.833 39.111C51.5368 39.111 51.3044 39.0289 51.1357 38.8649C50.9717 38.7008 50.8896 38.4957 50.8896 38.2496ZM54.1436 43.9713V43.8141C54.1436 43.2809 54.221 42.7864 54.376 42.3307C54.5309 41.8704 54.7542 41.4716 55.0459 41.1344C55.3421 40.7926 55.7021 40.5283 56.126 40.3414C56.5544 40.15 57.0374 40.0543 57.5752 40.0543C58.1175 40.0543 58.6006 40.15 59.0244 40.3414C59.4528 40.5283 59.8151 40.7926 60.1113 41.1344C60.4076 41.4716 60.6331 41.8704 60.7881 42.3307C60.943 42.7864 61.0205 43.2809 61.0205 43.8141V43.9713C61.0205 44.5045 60.943 44.999 60.7881 45.4547C60.6331 45.9104 60.4076 46.3092 60.1113 46.651C59.8151 46.9882 59.4551 47.2526 59.0312 47.444C58.6074 47.6308 58.1266 47.7242 57.5889 47.7242C57.0465 47.7242 56.5612 47.6308 56.1328 47.444C55.709 47.2526 55.349 46.9882 55.0527 46.651C54.7565 46.3092 54.5309 45.9104 54.376 45.4547C54.221 44.999 54.1436 44.5045 54.1436 43.9713ZM55.791 43.8141V43.9713C55.791 44.304 55.8252 44.6184 55.8936 44.9147C55.9619 45.2109 56.069 45.4707 56.2148 45.694C56.3607 45.9173 56.5475 46.0927 56.7754 46.2203C57.0033 46.3479 57.2744 46.4117 57.5889 46.4117C57.8942 46.4117 58.1585 46.3479 58.3818 46.2203C58.6097 46.0927 58.7965 45.9173 58.9424 45.694C59.0882 45.4707 59.1953 45.2109 59.2637 44.9147C59.3366 44.6184 59.373 44.304 59.373 43.9713V43.8141C59.373 43.486 59.3366 43.1761 59.2637 42.8844C59.1953 42.5882 59.0859 42.3261 58.9355 42.0983C58.7897 41.8704 58.6029 41.6927 58.375 41.5651C58.1517 41.4329 57.8851 41.3668 57.5752 41.3668C57.2653 41.3668 56.9964 41.4329 56.7686 41.5651C56.5452 41.6927 56.3607 41.8704 56.2148 42.0983C56.069 42.3261 55.9619 42.5882 55.8936 42.8844C55.8252 43.1761 55.791 43.486 55.791 43.8141ZM64.0352 41.7701V47.5875H62.3877V40.191H63.9395L64.0352 41.7701ZM63.7412 43.6158L63.208 43.609C63.2126 43.0849 63.2855 42.6041 63.4268 42.1666C63.5726 41.7291 63.7731 41.3531 64.0283 41.0387C64.2881 40.7242 64.598 40.4827 64.958 40.3141C65.318 40.1409 65.7191 40.0543 66.1611 40.0543C66.5166 40.0543 66.8379 40.1045 67.125 40.2047C67.4167 40.3004 67.665 40.4576 67.8701 40.6764C68.0798 40.8951 68.2393 41.18 68.3486 41.5309C68.458 41.8772 68.5127 42.3033 68.5127 42.8092V47.5875H66.8584V42.8024C66.8584 42.4469 66.806 42.1666 66.7012 41.9615C66.6009 41.7519 66.4528 41.6038 66.2568 41.5172C66.0654 41.4261 65.8262 41.3805 65.5391 41.3805C65.2565 41.3805 65.0036 41.4397 64.7803 41.5582C64.557 41.6767 64.3678 41.8385 64.2129 42.0436C64.0625 42.2487 63.9463 42.4856 63.8643 42.7545C63.7822 43.0234 63.7412 43.3105 63.7412 43.6158ZM74.3643 46.1041V42.5768C74.3643 42.3125 74.3164 42.0846 74.2207 41.8932C74.125 41.7018 73.9792 41.5537 73.7832 41.4489C73.5918 41.344 73.3503 41.2916 73.0586 41.2916C72.7897 41.2916 72.5573 41.3372 72.3613 41.4283C72.1654 41.5195 72.0127 41.6425 71.9033 41.7975C71.7939 41.9524 71.7393 42.1279 71.7393 42.3239H70.0986C70.0986 42.0322 70.1693 41.7496 70.3105 41.4762C70.4518 41.2028 70.6569 40.9589 70.9258 40.7448C71.1947 40.5306 71.516 40.3619 71.8896 40.2389C72.2633 40.1158 72.6826 40.0543 73.1475 40.0543C73.7035 40.0543 74.1956 40.1477 74.624 40.3346C75.057 40.5214 75.3965 40.804 75.6426 41.1823C75.8932 41.5559 76.0186 42.0253 76.0186 42.5905V45.8785C76.0186 46.2158 76.0413 46.5188 76.0869 46.7877C76.137 47.052 76.2077 47.2822 76.2988 47.4781V47.5875H74.6104C74.5329 47.4098 74.4714 47.1842 74.4258 46.9108C74.3848 46.6328 74.3643 46.3639 74.3643 46.1041ZM74.6035 43.0895L74.6172 44.108H73.4346C73.1292 44.108 72.8604 44.1377 72.6279 44.1969C72.3955 44.2516 72.2018 44.3336 72.0469 44.443C71.8919 44.5524 71.7757 44.6845 71.6982 44.8395C71.6208 44.9944 71.582 45.1699 71.582 45.3658C71.582 45.5618 71.6276 45.7418 71.7188 45.9059C71.8099 46.0654 71.9421 46.1907 72.1152 46.2819C72.293 46.373 72.5072 46.4186 72.7578 46.4186C73.0951 46.4186 73.389 46.3502 73.6396 46.2135C73.8949 46.0722 74.0954 45.9013 74.2412 45.7008C74.387 45.4957 74.4645 45.302 74.4736 45.1198L75.0068 45.8512C74.9521 46.038 74.8587 46.2386 74.7266 46.4528C74.5944 46.667 74.4212 46.872 74.207 47.068C73.9974 47.2594 73.7445 47.4166 73.4482 47.5397C73.1566 47.6627 72.8193 47.7242 72.4365 47.7242C71.9535 47.7242 71.5228 47.6285 71.1445 47.4371C70.7663 47.2412 70.4701 46.9791 70.2559 46.651C70.0417 46.3183 69.9346 45.9423 69.9346 45.5231C69.9346 45.1311 70.0075 44.7848 70.1533 44.484C70.3037 44.1787 70.5225 43.9235 70.8096 43.7184C71.1012 43.5133 71.4567 43.3584 71.876 43.2535C72.2952 43.1442 72.7738 43.0895 73.3115 43.0895H74.6035ZM79.3955 41.5992V47.5875H77.748V40.191H79.3203L79.3955 41.5992ZM81.6582 40.1432L81.6445 41.6744C81.5443 41.6562 81.4349 41.6425 81.3164 41.6334C81.2025 41.6243 81.0885 41.6198 80.9746 41.6198C80.6921 41.6198 80.4437 41.6608 80.2295 41.7428C80.0153 41.8203 79.8353 41.9342 79.6895 42.0846C79.5482 42.2304 79.4388 42.4082 79.3613 42.6178C79.2839 42.8274 79.2383 43.0621 79.2246 43.3219L78.8486 43.3492C78.8486 42.8844 78.8942 42.4537 78.9854 42.0573C79.0765 41.6608 79.2132 41.3121 79.3955 41.0114C79.5824 40.7106 79.8148 40.4759 80.0928 40.3073C80.3753 40.1386 80.7012 40.0543 81.0703 40.0543C81.1706 40.0543 81.2777 40.0634 81.3916 40.0817C81.5101 40.0999 81.599 40.1204 81.6582 40.1432ZM27.6338 56.191V63.5875H25.9795V56.191H27.6338ZM25.8701 54.2496C25.8701 53.999 25.9521 53.7916 26.1162 53.6276C26.2848 53.4589 26.5173 53.3746 26.8135 53.3746C27.1051 53.3746 27.3353 53.4589 27.5039 53.6276C27.6725 53.7916 27.7568 53.999 27.7568 54.2496C27.7568 54.4957 27.6725 54.7008 27.5039 54.8649C27.3353 55.0289 27.1051 55.111 26.8135 55.111C26.5173 55.111 26.2848 55.0289 26.1162 54.8649C25.9521 54.7008 25.8701 54.4957 25.8701 54.2496ZM31.0859 57.6949V63.5875H29.4385V56.191H30.9902L31.0859 57.6949ZM30.8193 59.6158L30.2588 59.609C30.2588 59.0986 30.3226 58.6269 30.4502 58.194C30.5778 57.761 30.7646 57.3851 31.0107 57.066C31.2568 56.7425 31.5622 56.4941 31.9268 56.3209C32.2959 56.1432 32.722 56.0543 33.2051 56.0543C33.5423 56.0543 33.8499 56.1045 34.1279 56.2047C34.4105 56.3004 34.6543 56.4531 34.8594 56.6627C35.069 56.8724 35.2285 57.1412 35.3379 57.4694C35.4518 57.7975 35.5088 58.194 35.5088 58.6588V63.5875H33.8613V58.8024C33.8613 58.4423 33.8066 58.1598 33.6973 57.9547C33.5924 57.7496 33.4398 57.6038 33.2393 57.5172C33.0433 57.4261 32.8086 57.3805 32.5352 57.3805C32.2253 57.3805 31.9609 57.4397 31.7422 57.5582C31.528 57.6767 31.3525 57.8385 31.2158 58.0436C31.0791 58.2487 30.9788 58.4856 30.915 58.7545C30.8512 59.0234 30.8193 59.3105 30.8193 59.6158ZM35.4062 59.1783L34.6338 59.3492C34.6338 58.9026 34.6953 58.4811 34.8184 58.0846C34.946 57.6836 35.1305 57.3326 35.3721 57.0319C35.6182 56.7265 35.9212 56.4873 36.2812 56.3141C36.6413 56.1409 37.0537 56.0543 37.5186 56.0543C37.8968 56.0543 38.234 56.1067 38.5303 56.2115C38.8311 56.3118 39.0863 56.4713 39.2959 56.6901C39.5055 56.9088 39.665 57.1936 39.7744 57.5446C39.8838 57.8909 39.9385 58.3102 39.9385 58.8024V63.5875H38.2842V58.7955C38.2842 58.4218 38.2295 58.1324 38.1201 57.9274C38.0153 57.7223 37.8649 57.581 37.6689 57.5035C37.473 57.4215 37.2383 57.3805 36.9648 57.3805C36.7096 57.3805 36.484 57.4283 36.2881 57.524C36.0967 57.6152 35.9349 57.7451 35.8027 57.9137C35.6706 58.0778 35.5703 58.2669 35.502 58.4811C35.4382 58.6953 35.4062 58.9277 35.4062 59.1783ZM45.8037 62.1041V58.5768C45.8037 58.3125 45.7559 58.0846 45.6602 57.8932C45.5645 57.7018 45.4186 57.5537 45.2227 57.4489C45.0312 57.344 44.7897 57.2916 44.498 57.2916C44.2292 57.2916 43.9967 57.3372 43.8008 57.4283C43.6048 57.5195 43.4521 57.6425 43.3428 57.7975C43.2334 57.9524 43.1787 58.1279 43.1787 58.3239H41.5381C41.5381 58.0322 41.6087 57.7496 41.75 57.4762C41.8913 57.2028 42.0964 56.9589 42.3652 56.7448C42.6341 56.5306 42.9554 56.3619 43.3291 56.2389C43.7028 56.1158 44.1221 56.0543 44.5869 56.0543C45.1429 56.0543 45.6351 56.1477 46.0635 56.3346C46.4964 56.5214 46.8359 56.804 47.082 57.1823C47.3327 57.5559 47.458 58.0253 47.458 58.5905V61.8785C47.458 62.2158 47.4808 62.5188 47.5264 62.7877C47.5765 63.052 47.6471 63.2822 47.7383 63.4781V63.5875H46.0498C45.9723 63.4098 45.9108 63.1842 45.8652 62.9108C45.8242 62.6328 45.8037 62.3639 45.8037 62.1041ZM46.043 59.0895L46.0566 60.108H44.874C44.5687 60.108 44.2998 60.1377 44.0674 60.1969C43.835 60.2516 43.6413 60.3336 43.4863 60.443C43.3314 60.5524 43.2152 60.6845 43.1377 60.8395C43.0602 60.9944 43.0215 61.1699 43.0215 61.3658C43.0215 61.5618 43.0671 61.7418 43.1582 61.9059C43.2493 62.0654 43.3815 62.1907 43.5547 62.2819C43.7324 62.373 43.9466 62.4186 44.1973 62.4186C44.5345 62.4186 44.8285 62.3502 45.0791 62.2135C45.3343 62.0722 45.5348 61.9013 45.6807 61.7008C45.8265 61.4957 45.904 61.302 45.9131 61.1198L46.4463 61.8512C46.3916 62.038 46.2982 62.2386 46.166 62.4528C46.0339 62.667 45.8607 62.872 45.6465 63.068C45.4368 63.2594 45.1839 63.4166 44.8877 63.5397C44.596 63.6627 44.2588 63.7242 43.876 63.7242C43.3929 63.7242 42.9622 63.6285 42.584 63.4371C42.2057 63.2412 41.9095 62.9791 41.6953 62.651C41.4811 62.3183 41.374 61.9423 41.374 61.5231C41.374 61.1311 41.4469 60.7848 41.5928 60.484C41.7432 60.1787 41.9619 59.9235 42.249 59.7184C42.5407 59.5133 42.8962 59.3584 43.3154 59.2535C43.7347 59.1442 44.2132 59.0895 44.751 59.0895H46.043ZM53.918 56.191H55.415V63.3824C55.415 64.0478 55.2738 64.6129 54.9912 65.0778C54.7087 65.5426 54.3145 65.8958 53.8086 66.1373C53.3027 66.3834 52.7171 66.5065 52.0518 66.5065C51.7692 66.5065 51.4548 66.4655 51.1084 66.3834C50.7666 66.3014 50.4339 66.1692 50.1104 65.9869C49.7913 65.8092 49.5247 65.5745 49.3105 65.2828L50.083 64.3121C50.3473 64.6266 50.639 64.8567 50.958 65.0026C51.277 65.1484 51.612 65.2213 51.9629 65.2213C52.3411 65.2213 52.6624 65.1507 52.9268 65.0094C53.1956 64.8727 53.403 64.6699 53.5488 64.401C53.6947 64.1321 53.7676 63.804 53.7676 63.4166V57.8658L53.918 56.191ZM48.8936 59.9713V59.8278C48.8936 59.2672 48.9619 58.7568 49.0986 58.2965C49.2354 57.8317 49.4313 57.4329 49.6865 57.1002C49.9417 56.763 50.2516 56.5055 50.6162 56.3278C50.9808 56.1455 51.3932 56.0543 51.8535 56.0543C52.332 56.0543 52.7399 56.1409 53.0771 56.3141C53.4189 56.4873 53.7038 56.7356 53.9316 57.0592C54.1595 57.3782 54.3372 57.761 54.4648 58.2076C54.597 58.6497 54.695 59.1419 54.7588 59.6842V60.1422C54.6995 60.6709 54.5993 61.1539 54.458 61.5914C54.3167 62.0289 54.1299 62.4072 53.8975 62.7262C53.665 63.0452 53.3779 63.2913 53.0361 63.4645C52.6989 63.6377 52.3001 63.7242 51.8398 63.7242C51.3887 63.7242 50.9808 63.6308 50.6162 63.444C50.2562 63.2571 49.9463 62.9951 49.6865 62.6578C49.4313 62.3206 49.2354 61.9241 49.0986 61.4684C48.9619 61.0081 48.8936 60.5091 48.8936 59.9713ZM50.541 59.8278V59.9713C50.541 60.3086 50.5729 60.623 50.6367 60.9147C50.7051 61.2063 50.8076 61.4638 50.9443 61.6871C51.0856 61.9059 51.2633 62.0791 51.4775 62.2067C51.6963 62.3297 51.9538 62.3912 52.25 62.3912C52.6374 62.3912 52.9541 62.3092 53.2002 62.1451C53.4508 61.9811 53.6423 61.7601 53.7744 61.4821C53.9111 61.1995 54.0068 60.8851 54.0615 60.5387V59.3014C54.0342 59.0325 53.9772 58.7819 53.8906 58.5494C53.8086 58.317 53.6969 58.1142 53.5557 57.941C53.4144 57.7633 53.2367 57.6266 53.0225 57.5309C52.8083 57.4306 52.5553 57.3805 52.2637 57.3805C51.9674 57.3805 51.71 57.4443 51.4912 57.5719C51.2725 57.6995 51.0924 57.875 50.9512 58.0983C50.8145 58.3216 50.7119 58.5813 50.6436 58.8776C50.5752 59.1738 50.541 59.4905 50.541 59.8278ZM60.3848 63.7242C59.8379 63.7242 59.3434 63.6354 58.9014 63.4576C58.4639 63.2753 58.0902 63.0224 57.7803 62.6989C57.4749 62.3753 57.2402 61.9948 57.0762 61.5573C56.9121 61.1198 56.8301 60.6481 56.8301 60.1422V59.8688C56.8301 59.29 56.9144 58.7659 57.083 58.2965C57.2516 57.8271 57.4863 57.4261 57.7871 57.0934C58.0879 56.7561 58.4434 56.4987 58.8535 56.3209C59.2637 56.1432 59.708 56.0543 60.1865 56.0543C60.7152 56.0543 61.1777 56.1432 61.5742 56.3209C61.9707 56.4987 62.2988 56.7493 62.5586 57.0729C62.8229 57.3919 63.0189 57.7724 63.1465 58.2145C63.2786 58.6565 63.3447 59.1442 63.3447 59.6774V60.3815H57.6299V59.1989H61.7178V59.069C61.7087 58.7727 61.6494 58.4948 61.54 58.235C61.4352 57.9752 61.2734 57.7656 61.0547 57.6061C60.8359 57.4466 60.5443 57.3668 60.1797 57.3668C59.9062 57.3668 59.6624 57.4261 59.4482 57.5446C59.2386 57.6585 59.0632 57.8248 58.9219 58.0436C58.7806 58.2623 58.6712 58.5267 58.5938 58.8365C58.5208 59.1419 58.4844 59.486 58.4844 59.8688V60.1422C58.4844 60.4658 58.5277 60.7666 58.6143 61.0446C58.7054 61.318 58.8376 61.5573 59.0107 61.7623C59.1839 61.9674 59.3936 62.1292 59.6396 62.2477C59.8857 62.3616 60.166 62.4186 60.4805 62.4186C60.877 62.4186 61.2301 62.3388 61.54 62.1793C61.8499 62.0198 62.1188 61.7942 62.3467 61.5026L63.2148 62.3434C63.0553 62.5758 62.848 62.7991 62.5928 63.0133C62.3376 63.2229 62.0254 63.3938 61.6562 63.526C61.2917 63.6582 60.8678 63.7242 60.3848 63.7242ZM66.2773 57.6949V63.5875H64.6299V56.191H66.1816L66.2773 57.6949ZM66.0107 59.6158L65.4502 59.609C65.4502 59.0986 65.514 58.6269 65.6416 58.194C65.7692 57.761 65.9561 57.3851 66.2021 57.066C66.4482 56.7425 66.7536 56.4941 67.1182 56.3209C67.4873 56.1432 67.9134 56.0543 68.3965 56.0543C68.7337 56.0543 69.0413 56.1045 69.3193 56.2047C69.6019 56.3004 69.8457 56.4531 70.0508 56.6627C70.2604 56.8724 70.4199 57.1412 70.5293 57.4694C70.6432 57.7975 70.7002 58.194 70.7002 58.6588V63.5875H69.0527V58.8024C69.0527 58.4423 68.998 58.1598 68.8887 57.9547C68.7839 57.7496 68.6312 57.6038 68.4307 57.5172C68.2347 57.4261 68 57.3805 67.7266 57.3805C67.4167 57.3805 67.1523 57.4397 66.9336 57.5582C66.7194 57.6767 66.5439 57.8385 66.4072 58.0436C66.2705 58.2487 66.1702 58.4856 66.1064 58.7545C66.0426 59.0234 66.0107 59.3105 66.0107 59.6158ZM70.5977 59.1783L69.8252 59.3492C69.8252 58.9026 69.8867 58.4811 70.0098 58.0846C70.1374 57.6836 70.3219 57.3326 70.5635 57.0319C70.8096 56.7265 71.1126 56.4873 71.4727 56.3141C71.8327 56.1409 72.2451 56.0543 72.71 56.0543C73.0882 56.0543 73.4255 56.1067 73.7217 56.2115C74.0225 56.3118 74.2777 56.4713 74.4873 56.6901C74.6969 56.9088 74.8564 57.1936 74.9658 57.5446C75.0752 57.8909 75.1299 58.3102 75.1299 58.8024V63.5875H73.4756V58.7955C73.4756 58.4218 73.4209 58.1324 73.3115 57.9274C73.2067 57.7223 73.0563 57.581 72.8604 57.5035C72.6644 57.4215 72.4297 57.3805 72.1562 57.3805C71.901 57.3805 71.6755 57.4283 71.4795 57.524C71.2881 57.6152 71.1263 57.7451 70.9941 57.9137C70.862 58.0778 70.7617 58.2669 70.6934 58.4811C70.6296 58.6953 70.5977 58.9277 70.5977 59.1783Z" fill="white"/>
</svg>
