<svg width="125" height="124" viewBox="0 0 125 124" fill="none" xmlns="http://www.w3.org/2000/svg">
<path d="M115.253 41.3212H98.4706C95.8893 41.549 92.1497 42.3872 88.6655 45.1572C84.9715 48.0911 83.4391 51.7084 82.8554 53.3576C82.8189 49.3485 82.7824 45.3303 82.7459 41.3212H82.7368V8.46469C82.7368 3.79043 78.9425 0 74.2634 0H49.0346C44.8025 0 41.373 3.42597 41.373 7.65376V41.3303H8.27277C3.70313 41.3303 0 45.0296 0 49.5945V75.0797C0 79.262 3.39302 82.6606 7.58869 82.6606H25.0737C27.6458 82.5057 31.7047 81.7585 35.4534 78.7882C39.1474 75.8542 40.6798 72.2369 41.2635 70.5877C41.3 74.615 41.3365 78.6424 41.373 82.6697V115.599C41.373 120.237 45.1399 124 49.7825 124H74.3363C78.9789 124 82.7459 120.237 82.7459 115.599V82.6788H115.801C120.397 82.6788 124.119 78.9613 124.119 74.369V50.1868C124.119 45.303 120.16 41.3485 115.271 41.3485L115.253 41.3212Z" fill="#DD7878"/>
<path d="M64.2301 39.1708H60.5361C59.0249 39.1708 57.7998 40.3946 57.7998 41.9043V66.9065C57.7998 68.4162 59.0249 69.64 60.5361 69.64H64.2301C65.7413 69.64 66.9664 68.4162 66.9664 66.9065V41.9043C66.9664 40.3946 65.7413 39.1708 64.2301 39.1708Z" fill="white"/>
<path d="M64.2301 74.0317H60.5361C59.0249 74.0317 57.7998 75.2556 57.7998 76.7652V80.9475C57.7998 82.4571 59.0249 83.6809 60.5361 83.6809H64.2301C65.7413 83.6809 66.9664 82.4571 66.9664 80.9475V76.7652C66.9664 75.2556 65.7413 74.0317 64.2301 74.0317Z" fill="white"/>
</svg>
