<svg width="118" height="100" viewBox="0 0 118 100" fill="none" xmlns="http://www.w3.org/2000/svg">
<path d="M85.2652 19.9941H77.1446C75.8956 20.1043 74.0861 20.51 72.4002 21.8502C70.6128 23.2699 69.8713 25.0202 69.5889 25.8182C69.5712 23.8783 69.5536 21.934 69.5359 19.9941H69.5315V4.09582C69.5315 1.83408 67.6955 0 65.4314 0H53.224C51.1762 0 49.5167 1.65773 49.5167 3.70343V19.9985H33.5005C31.2894 19.9985 29.4976 21.7885 29.4976 23.9974V36.3289C29.4976 38.3526 31.1393 39.9971 33.1695 39.9971H41.63C42.8746 39.9221 44.8385 39.5606 46.6524 38.1233C48.4399 36.7037 49.1813 34.9533 49.4638 34.1553C49.4814 36.104 49.4991 38.0528 49.5167 40.0015V55.935C49.5167 58.1791 51.3395 60 53.5859 60H65.4667C67.7132 60 69.5359 58.1791 69.5359 55.935V40.0059H85.5301C87.7544 40.0059 89.5551 38.2071 89.5551 35.985V24.2839C89.5551 21.9208 87.6397 20.0073 85.2741 20.0073L85.2652 19.9941Z" fill="#DD7878"/>
<path d="M60.5765 18.9536H58.7891C58.0579 18.9536 57.4651 19.5458 57.4651 20.2763V32.3741C57.4651 33.1046 58.0579 33.6968 58.7891 33.6968H60.5765C61.3078 33.6968 61.9006 33.1046 61.9006 32.3741V20.2763C61.9006 19.5458 61.3078 18.9536 60.5765 18.9536Z" fill="white"/>
<path d="M60.5765 35.8219H58.7891C58.0579 35.8219 57.4651 36.4141 57.4651 37.1446V39.1682C57.4651 39.8987 58.0579 40.4909 58.7891 40.4909H60.5765C61.3078 40.4909 61.9006 39.8987 61.9006 39.1682V37.1446C61.9006 36.4141 61.3078 35.8219 60.5765 35.8219Z" fill="white"/>
<path d="M8.9189 97.005C9.09266 91.662 9.27065 86.0948 9.44441 80.7519C9.72412 79.2574 11.2922 78.436 12.7459 78.436C14.4623 78.436 15.6023 79.1304 16.2253 80.7519C17.3314 84.4902 18.4333 87.856 19.5394 91.5943H19.7513L23.1926 80.7519C23.3155 80.4259 23.6122 79.7781 24.2776 79.2404C25.2862 78.4276 26.4178 78.4614 26.7526 78.4784C27.1637 78.4953 28.4097 78.5546 29.2149 79.5495C29.6302 80.0618 29.7574 80.6164 29.804 80.9339C29.9862 86.2895 30.1727 91.6451 30.3549 97.005C30.3931 98.1607 29.465 99.1176 28.308 99.1176C27.1976 99.1176 26.2907 98.2327 26.261 97.1277L26.1169 91.6747L25.9389 83.0804H25.6804L22.0484 95.2437C21.7899 96.1116 20.9931 96.7044 20.0862 96.7044H19.1834C18.2807 96.7044 17.4798 96.1116 17.2212 95.2437L13.5765 83.0761H13.318L13.14 91.6832L13.0086 97.115C12.9832 98.2242 12.072 99.1133 10.9616 99.1133C9.85127 99.1133 8.87651 98.1565 8.91466 97.0007L8.9189 97.005Z" fill="#2E4F86"/>
<path d="M34.0925 97.005C34.2662 91.662 34.4442 86.0948 34.618 80.7519C34.8977 79.2574 36.4658 78.436 37.9194 78.436C39.6358 78.436 40.7759 79.1304 41.3989 80.7519C42.505 84.4902 43.6069 87.856 44.713 91.5943H44.9249L48.3662 80.7519C48.4891 80.4259 48.7858 79.7781 49.4512 79.2404C50.4598 78.4276 51.5914 78.4614 51.9262 78.4784C52.3373 78.4953 53.5833 78.5546 54.3885 79.5495C54.8038 80.0618 54.931 80.6164 54.9776 80.9339C55.1598 86.2895 55.3463 91.6451 55.5285 97.005C55.5667 98.1607 54.6385 99.1176 53.4816 99.1176C52.3712 99.1176 51.4642 98.2327 51.4346 97.1277L51.2905 91.6747L51.1125 83.0804H50.854L47.222 95.2437C46.9634 96.1116 46.1667 96.7044 45.2597 96.7044H44.357C43.4543 96.7044 42.6533 96.1116 42.3948 95.2437L38.7501 83.0761H38.4916L38.3136 91.6832L38.1822 97.115C38.1568 98.2242 37.2456 99.1133 36.1352 99.1133C35.0249 99.1133 34.0501 98.1565 34.0882 97.0007L34.0925 97.005Z" fill="#2E4F86"/>
<path d="M67.4418 99.5875C64.5896 99.5875 62.4917 98.8889 61.1398 97.4918C59.7879 96.0947 59.114 94.0541 59.114 91.3657V80.5656C59.114 79.3886 60.0676 78.436 61.2458 78.436C62.4239 78.436 63.3775 79.3886 63.3775 80.5656V91.4631C63.3775 92.9406 63.6996 94.0668 64.3395 94.8373C64.9837 95.6078 66.0178 95.9931 67.4418 95.9931C68.8658 95.9931 69.8871 95.6078 70.5271 94.8373C71.1713 94.0668 71.4891 92.9406 71.4891 91.4631V80.5656C71.4891 79.3886 72.4427 78.436 73.6209 78.436C74.799 78.436 75.7526 79.3886 75.7526 80.5656V91.3657C75.7526 94.0541 75.0787 96.0947 73.7268 97.4918C72.3749 98.8889 70.2813 99.5875 67.4418 99.5875Z" fill="#2E4F86"/>
<path d="M86.6953 80.735L92.2768 94.4902H92.4887L92.3107 85.6714V80.4682C92.3107 79.3463 93.2219 78.4361 94.345 78.4361C95.4681 78.4361 96.3792 79.3463 96.3792 80.4682V95.9932C96.108 97.7332 94.6925 99.0287 93.0609 99.1176C91.7004 99.1938 90.3782 98.4191 89.7086 97.1447C87.7506 92.3522 85.7968 87.5639 83.8389 82.7714H83.627L83.805 91.8653V97.0854C83.805 98.2074 82.8938 99.1176 81.7707 99.1176H81.7537C80.6307 99.1176 79.7195 98.2074 79.7195 97.0854V81.0737C80.1221 79.5368 81.4825 78.4318 83.0675 78.3472C84.661 78.2625 86.1359 79.232 86.6911 80.7307L86.6953 80.735Z" fill="#2E4F86"/>
<path d="M115.01 80.265C113.547 78.7536 111.382 78 108.521 78C105.66 78 103.495 78.7536 102.033 80.265C100.571 81.7764 99.8374 83.9271 99.8374 86.7214V90.9297C99.8374 93.7112 100.571 95.8534 102.033 97.3479C103.495 98.8424 105.66 99.5875 108.521 99.5875C111.382 99.5875 113.56 98.8424 115.018 97.3479C116.476 95.8534 117.205 93.7154 117.205 90.9297V86.7214C117.205 83.9271 116.472 81.7764 115.01 80.265ZM112.878 91.1244C112.878 92.6866 112.518 93.9017 111.793 94.7654C111.068 95.629 109.979 96.0609 108.521 96.0609C107.063 96.0609 105.987 95.629 105.266 94.7654C104.542 93.9017 104.181 92.6866 104.181 91.1244V86.5266C104.181 84.9094 104.542 83.6647 105.266 82.7968C105.991 81.9288 107.076 81.4928 108.521 81.4928C109.966 81.4928 111.068 81.9288 111.793 82.7968C112.518 83.6647 112.878 84.9094 112.878 86.5266V91.1244Z" fill="#2E4F86"/>
<path d="M3.70584 78.4403H1.98943C1.28725 78.4403 0.718018 79.009 0.718018 79.7104V91.3276C0.718018 92.0291 1.28725 92.5977 1.98943 92.5977H3.70584C4.40802 92.5977 4.97726 92.0291 4.97726 91.3276V79.7104C4.97726 79.009 4.40802 78.4403 3.70584 78.4403Z" fill="#DD7878"/>
<path d="M3.70584 94.6383H1.98943C1.28725 94.6383 0.718018 95.207 0.718018 95.9084V97.8517C0.718018 98.5531 1.28725 99.1218 1.98943 99.1218H3.70584C4.40802 99.1218 4.97726 98.5531 4.97726 97.8517V95.9084C4.97726 95.207 4.40802 94.6383 3.70584 94.6383Z" fill="#DD7878"/>
</svg>
