<svg width="219" height="42" viewBox="0 0 219 42" fill="none" xmlns="http://www.w3.org/2000/svg">
<path d="M69.335 34.018C69.5751 26.6334 69.8212 18.9387 70.0613 11.5542C70.4479 9.48858 72.6152 8.35339 74.6243 8.35339C76.9966 8.35339 78.5723 9.31304 79.4334 11.5542C80.9622 16.721 82.4851 21.3729 84.0139 26.5398H84.3068L89.0631 11.5542C89.233 11.1036 89.643 10.2083 90.5626 9.46517C91.9567 8.34169 93.5207 8.3885 93.9834 8.4119C94.5516 8.43531 96.2737 8.51723 97.3867 9.89233C97.9607 10.6004 98.1364 11.3669 98.2008 11.8058C98.4527 19.2079 98.7105 26.61 98.9623 34.018C99.015 35.6154 97.7322 36.9379 96.1331 36.9379C94.5985 36.9379 93.345 35.7149 93.304 34.1877L93.1048 26.651L92.8588 14.7725H92.5015L87.4816 31.5838C87.1243 32.7833 86.0231 33.6025 84.7696 33.6025H83.5219C82.2743 33.6025 81.1672 32.7833 80.8099 31.5838L75.7724 14.7666H75.4151L75.1691 26.6627L74.9875 34.1701C74.9524 35.7032 73.693 36.932 72.1583 36.932C70.6236 36.932 69.2764 35.6096 69.3291 34.0121L69.335 34.018Z" fill="#2E4F86"/>
<path d="M104.128 34.018C104.369 26.6334 104.615 18.9387 104.855 11.5542C105.241 9.48858 107.409 8.35339 109.418 8.35339C111.79 8.35339 113.366 9.31304 114.227 11.5542C115.756 16.721 117.279 21.3729 118.807 26.5398H119.1L123.857 11.5542C124.026 11.1036 124.436 10.2083 125.356 9.46517C126.75 8.34169 128.314 8.3885 128.777 8.4119C129.345 8.43531 131.067 8.51723 132.18 9.89233C132.754 10.6004 132.93 11.3669 132.994 11.8058C133.246 19.2079 133.504 26.61 133.756 34.018C133.809 35.6154 132.526 36.9379 130.927 36.9379C129.392 36.9379 128.138 35.7149 128.097 34.1877L127.898 26.651L127.652 14.7725H127.295L122.275 31.5838C121.918 32.7833 120.817 33.6025 119.563 33.6025H118.315C117.068 33.6025 115.961 32.7833 115.603 31.5838L110.566 14.7666H110.209L109.963 26.6627L109.781 34.1701C109.746 35.7032 108.486 36.932 106.952 36.932C105.417 36.932 104.07 35.6096 104.123 34.0121L104.128 34.018Z" fill="#2E4F86"/>
<path d="M150.221 37.5874C146.279 37.5874 143.38 36.6219 141.511 34.6909C139.643 32.7599 138.711 29.9395 138.711 26.2238V11.2967C138.711 9.66998 140.029 8.35339 141.658 8.35339C143.286 8.35339 144.604 9.66998 144.604 11.2967V26.3584C144.604 28.4006 145.049 29.9571 145.934 31.022C146.824 32.087 148.253 32.6195 150.221 32.6195C152.19 32.6195 153.601 32.087 154.486 31.022C155.376 29.9571 155.815 28.4006 155.815 26.3584V11.2967C155.815 9.66998 157.133 8.35339 158.762 8.35339C160.39 8.35339 161.708 9.66998 161.708 11.2967V26.2238C161.708 29.9395 160.777 32.7599 158.908 34.6909C157.04 36.6219 154.146 37.5874 150.221 37.5874Z" fill="#2E4F86"/>
<path d="M176.832 11.5308L184.546 30.5423H184.839L184.593 18.3537V11.1622C184.593 9.61155 185.852 8.35349 187.405 8.35349C188.957 8.35349 190.216 9.61155 190.216 11.1622V32.6196C189.841 35.0245 187.885 36.8151 185.63 36.938C183.75 37.0433 181.922 35.9725 180.997 34.2112C178.29 27.5873 175.59 20.9693 172.884 14.3454H172.591L172.837 26.9144V34.1293C172.837 35.6799 171.578 36.938 170.025 36.938H170.002C168.45 36.938 167.19 35.6799 167.19 34.1293V11.999C167.747 9.87488 169.627 8.34764 171.818 8.23061C174.02 8.11358 176.059 9.45357 176.826 11.525L176.832 11.5308Z" fill="#2E4F86"/>
<path d="M215.966 10.8814C213.945 8.79241 210.952 7.75085 206.998 7.75085C203.044 7.75085 200.051 8.79241 198.03 10.8814C196.009 12.9704 194.996 15.9429 194.996 19.8049V25.6213C194.996 29.4657 196.009 32.4265 198.03 34.4921C200.051 36.5577 203.044 37.5875 206.998 37.5875C210.952 37.5875 213.963 36.5577 215.978 34.4921C217.993 32.4265 219 29.4715 219 25.6213V19.8049C219 15.9429 217.987 12.9704 215.966 10.8814ZM213.02 25.8904C213.02 28.0496 212.522 29.729 211.52 30.9227C210.519 32.1164 209.013 32.7133 206.998 32.7133C204.983 32.7133 203.495 32.1164 202.5 30.9227C201.498 29.729 201 28.0496 201 25.8904V19.5357C201 17.3005 201.498 15.5801 202.5 14.3806C203.501 13.181 205.001 12.5783 206.998 12.5783C208.996 12.5783 210.519 13.181 211.52 14.3806C212.522 15.5801 213.02 17.3005 213.02 19.5357V25.8904Z" fill="#2E4F86"/>
<path d="M62.1296 8.35938H59.7573C58.7868 8.35938 58 9.14531 58 10.1148V26.1713C58 27.1408 58.7868 27.9267 59.7573 27.9267H62.1296C63.1001 27.9267 63.8868 27.1408 63.8868 26.1713V10.1148C63.8868 9.14531 63.1001 8.35938 62.1296 8.35938Z" fill="#DD7878"/>
<path d="M62.1296 30.7471H59.7573C58.7868 30.7471 58 31.533 58 32.5025V35.1884C58 36.1579 58.7868 36.9438 59.7573 36.9438H62.1296C63.1001 36.9438 63.8868 36.1579 63.8868 35.1884V32.5025C63.8868 31.533 63.1001 30.7471 62.1296 30.7471Z" fill="#DD7878"/>
<path d="M39 13.9959H33.321C32.4475 14.073 31.1821 14.357 30.0031 15.2952C28.7531 16.2889 28.2346 17.5141 28.037 18.0727C28.0247 16.7148 28.0123 15.3538 28 13.9959H27.9969V2.86707C27.9969 1.28386 26.713 0 25.1296 0H16.5926C15.1605 0 14 1.16041 14 2.5924V13.999H2.79938C1.25309 13.999 0 15.252 0 16.7981V25.4302C0 26.8468 1.14815 27.9979 2.5679 27.9979H8.48457C9.35494 27.9455 10.7284 27.6924 11.9969 26.6863C13.2469 25.6926 13.7654 24.4673 13.963 23.9087C13.9753 25.2728 13.9877 26.6369 14 28.001V39.1545C14 40.7254 15.2747 42 16.8457 42H25.1543C26.7253 42 28 40.7254 28 39.1545V28.0041H39.1852C40.7407 28.0041 42 26.7449 42 25.1895V16.9988C42 15.3446 40.6605 14.0051 39.0062 14.0051L39 13.9959Z" fill="#DD7878"/>
<path d="M21.7345 13.295H20.4845C19.9731 13.295 19.5586 13.7092 19.5586 14.22V22.6804C19.5586 23.1913 19.9731 23.6054 20.4845 23.6054H21.7345C22.2459 23.6054 22.6605 23.1913 22.6605 22.6804V14.22C22.6605 13.7092 22.2459 13.295 21.7345 13.295Z" fill="white"/>
<path d="M21.7345 25.0916H20.4845C19.9731 25.0916 19.5586 25.5057 19.5586 26.0165V27.4317C19.5586 27.9426 19.9731 28.3567 20.4845 28.3567H21.7345C22.2459 28.3567 22.6605 27.9426 22.6605 27.4317V26.0165C22.6605 25.5057 22.2459 25.0916 21.7345 25.0916Z" fill="white"/>
</svg>
